<svg viewBox="0 0 1200 950" xmlns="http://www.w3.org/2000/svg" version="1.1">
 <title>ISS Solar Arrays Labeled</title>

 <g>
  <text xml:space="preserve" text-anchor="start" font-family="monospace" font-size="84" id="solar-3b" y="942.54355" x="43.8744" stroke-width="0" stroke="#fff" fill="#fff">3B</text>
  <text xml:space="preserve" text-anchor="start" font-family="monospace" font-size="84" id="solar-1a" y="942.54355" x="198.26033" stroke-width="0" stroke="#fff" fill="#fff">1A</text>
  <text xml:space="preserve" text-anchor="start" font-family="monospace" font-size="84" id="solar-1b" y="81.14023" x="43.8744" stroke-width="0" stroke="#fff" fill="#fff">1B</text>
  <text xml:space="preserve" text-anchor="start" font-family="monospace" font-size="84" id="solar-3a" y="81.14023" x="198.26033" stroke-width="0" stroke="#fff" fill="#fff">3A</text>
  <text xml:space="preserve" text-anchor="start" font-family="monospace" font-size="84" id="solar-4a" y="937.2804" x="903.52332" stroke-width="0" stroke="#fff" fill="#fff">4A</text>
  <text xml:space="preserve" text-anchor="start" font-family="monospace" font-size="84" id="solar-2b" y="937.2804" x="1057.90926" stroke-width="0" stroke="#fff" fill="#fff">2B</text>
  <text xml:space="preserve" text-anchor="start" font-family="monospace" font-size="84" id="solar-2a" y="75.87707" x="903.52332" stroke-width="0" stroke="#fff" fill="#fff">2A</text>
  <text xml:space="preserve" text-anchor="start" font-family="monospace" font-size="84" id="solar-4b" y="75.87707" x="1057.90926" stroke-width="0" stroke="#fff" fill="#fff">4B</text>
  <g>
   <g transform="matrix(8.6914 0 0 -8.6914 1098.7 465.72)" fill="#fff">
    <path id="svg_3" d="m0,0l0,-0.226c0.126,0.128 0.048,-0.001 0.113,0.226l-0.113,0zm-0.453,4.183l0,39.459c0.128,0.097 0.018,-0.015 0.114,0.113c0.458,-0.023 1.809,-0.311 2.147,0c0.298,-0.013 0.385,-0.044 0.566,-0.113l0,-39.459l5.653,0l0,35.05c0,1.543 -0.128,3.394 0.113,4.748l-4.409,0c-0.459,0 -1.324,0.116 -1.583,-0.113c-0.267,0.027 -0.279,0.048 -0.452,0.113l0,0.227l-1.018,0l0,-0.113c-0.121,-0.078 -0.372,-0.382 -0.678,-0.227l0,0.113l-4.07,0c-0.669,0 -1.546,0.067 -2.036,-0.113l0,-35.954c0,-1.069 -0.19,-2.899 0.113,-3.731l5.54,0zm8.028,-10.288l-5.541,0l0,-35.615c0,-1.069 0.191,-2.9 -0.112,-3.732c-0.568,0.036 -1.669,0.545 -2.035,0c-0.324,0.006 -0.485,0.04 -0.679,0.114l0,39.233l-5.54,0l0,-39.685l5.879,0l0,0.112l0.679,0l0,-0.338c0.596,-0.029 0.996,-0.16 1.13,0.338l0.566,0l0,-0.112l5.879,0l0,0.226c-0.075,0.038 -0.151,0.075 -0.226,0.112l0,39.347zm-20.464,7.236l0,0.113c-0.226,-0.068 -0.098,0.015 -0.227,-0.113l0.227,0zm-0.453,-0.113l0.226,0l0,0.113c-0.225,-0.068 -0.097,0.015 -0.226,-0.113m-0.339,-0.227c0.226,0.068 0.098,-0.015 0.226,0.113l0.113,0l0,0.114c-0.268,-0.073 -0.211,-0.032 -0.339,-0.227m-0.226,-0.113l0.226,0l0,0.113c-0.226,-0.068 -0.097,0.016 -0.226,-0.113m-1.47,-3.505c0.097,-0.127 -0.015,-0.017 0.113,-0.113l0,0.226c-0.226,-0.068 -0.097,0.016 -0.226,-0.113l0.113,0zm-3.166,46.582l0.566,0l0,-0.113c0.716,0.038 1.432,0.076 2.148,0.113l0,-39.572l5.653,0l0,35.05c0,1.543 -0.128,3.394 0.113,4.748l-5.879,0l0,-0.113l-0.679,0l0,0.34l-0.904,0c-0.038,-0.113 -0.076,-0.227 -0.113,-0.34l-0.565,0l0,0.113l-5.993,0l0,-39.798l5.653,0l0,39.572zm8.141,-84.005l0,34.145l-5.653,0l0,-39.347c-0.514,0.017 -1.476,0.457 -2.035,0.226c-0.038,-0.074 -0.076,-0.15 -0.113,-0.226l-0.566,0l0,39.347l-3.731,0c-0.638,0 -1.46,0.056 -1.922,-0.114l0,-35.84c0,-1.069 -0.19,-2.899 0.113,-3.731l4.523,0c0.285,0 1.578,0.114 1.583,0.112c0.037,-0.075 0.075,-0.15 0.113,-0.226l1.243,0c0.068,0.226 -0.015,0.098 0.114,0.226l0,0.114c0.438,-0.19 0.947,-0.226 1.582,-0.226l4.862,0c-0.151,1.649 -0.113,3.709 -0.113,5.54m-14.359,37.536l0.226,0l0,0.113c-0.226,-0.068 -0.097,0.016 -0.226,-0.113m-0.339,-0.226l0.226,0l0,0.113c-0.226,-0.068 -0.097,0.016 -0.226,-0.113m-28.04,18.543l0.113,0l0,0.226c0.075,0.037 0.151,0.075 0.227,0.113c0.074,0.226 0.15,0.452 0.226,0.678c0.075,0.038 0.15,0.076 0.226,0.113l0,0.226l0.112,0l0,0.226l0.114,0c0.162,0.286 0.22,0.582 0.452,0.792l0,0.339l-0.114,0c-0.037,-0.151 -0.074,-0.301 -0.112,-0.452c-0.076,-0.038 -0.151,-0.075 -0.226,-0.113c-0.076,-0.226 -0.151,-0.452 -0.226,-0.679c-0.076,-0.037 -0.151,-0.075 -0.226,-0.113c-0.076,-0.226 -0.152,-0.452 -0.226,-0.678c-0.076,-0.038 -0.152,-0.075 -0.227,-0.113l0,-0.226l-0.113,0c-0.075,-0.226 -0.151,-0.452 -0.226,-0.679c0.275,0.18 0.073,0.091 0.226,0.34m0.792,32.336c-0.581,0.006 -1.12,0.286 -1.47,-0.113c2.374,-0.076 4.748,-0.151 7.122,-0.227c-0.31,0.297 -1.191,0.226 -1.808,0.227c-1.281,0.037 -2.564,0.075 -3.844,0.113m-0.34,-29.962l0,0.226l-0.112,0c-0.304,-0.632 -0.874,-1.181 -1.018,-1.922c0.551,0.36 0.637,1.269 1.13,1.696m4.862,30.527l-1.47,0l0,-0.113l-2.826,0l0,-0.113c-0.545,-0.149 -1.449,0.207 -1.809,-0.113c2.562,0.075 5.125,0.151 7.688,0.226c-0.259,0.229 -1.125,0.113 -1.583,0.113m-5.766,-30.527l0,0.226l-0.113,0c-0.127,-0.273 -0.274,-0.454 -0.34,-0.791c0.26,0.17 0.239,0.377 0.453,0.565m-0.226,-1.696l-0.113,0c-0.167,-0.354 -0.406,-0.566 -0.452,-1.018c0.249,0.207 0.324,0.578 0.565,0.792l0,0.226zm-0.227,0.904l0,0.227l-0.112,0c-0.127,-0.273 -0.275,-0.454 -0.34,-0.792c0.26,0.17 0.239,0.377 0.452,0.565m-0.678,0.227l-0.113,0l0,-0.227c0.127,0.129 0.048,-0.001 0.113,0.227m0.226,-1.018l0,0.226l-0.113,0c-0.095,-0.21 -0.174,-0.295 -0.226,-0.565c0.171,0.108 0.192,0.221 0.339,0.339m-0.113,24.761c-0.226,-0.068 -0.097,0.016 -0.226,-0.113l-0.113,0l0,-0.113l0.339,0l0,0.226zm-0.339,-23.97l0,-0.226c0.127,0.129 0.048,-0.001 0.113,0.226l-0.113,0zm-0.113,-0.339l-0.113,0l0,-0.226c0.127,0.129 0.048,-0.001 0.113,0.226m-0.113,-0.226l-0.113,0l0,-0.226c0.126,0.128 0.048,-0.001 0.113,0.226m0.339,-0.565l-0.113,0c-0.127,-0.273 -0.274,-0.454 -0.339,-0.792c0.26,0.17 0.239,0.378 0.452,0.566l0,0.226zm-0.565,-1.809l0.339,0l0,0.113l-0.339,0l0,-0.113zm-4.183,2.374l0,-0.226c0.126,0.128 0.048,-0.001 0.113,0.226l-0.113,0zm-0.114,-2.374l0.227,0l0,0.113c-0.226,-0.068 -0.098,0.016 -0.227,-0.113m0,2.713l-0.113,0l0,-0.226c0.127,0.129 0.049,-0.001 0.113,0.226m-0.113,0.226l-0.113,0l0,-0.226c0.127,0.129 0.049,-0.001 0.113,0.226m-0.339,23.97l0,-0.226l0.339,0l0,0.113c-0.113,0.037 -0.226,0.075 -0.339,0.113m0.113,-23.743c-0.096,0.127 0.015,0.017 -0.113,0.113l0,-0.226c0.076,-0.038 0.151,-0.076 0.226,-0.114c0.045,0.225 -0.059,0.144 -0.113,0.227m-0.452,-0.34c-0.097,0.128 0.015,0.018 -0.113,0.113l0,-0.226c0.462,-0.395 0.555,-1.184 1.018,-1.582l0,-0.114l0.113,0c-0.09,0.4 -0.296,0.508 -0.453,0.792c-0.037,0.151 -0.075,0.301 -0.113,0.452c-0.075,0.038 -0.151,0.076 -0.226,0.113c-0.133,0.207 0.001,0.255 -0.226,0.452m-0.226,-24.308l0,0.113c-0.226,-0.068 -0.098,0.016 -0.226,-0.113l0.226,0zm-0.565,25.439l0,-0.113c0.094,0.015 0.437,-0.692 0.565,-0.791l0,-0.114l0.113,0c-0.102,0.447 -0.352,0.603 -0.452,1.018l-0.226,0zm0,-24.422c0.21,-0.144 0.191,-0.112 0.226,-0.452c0.114,0.097 0.159,0.195 0.226,0.339c-0.37,0.231 -0.144,0.463 -0.452,0.113m0.113,-2.148c0.131,0.004 0.181,0.249 0.226,0.339l0.113,0l0,0.114l-0.113,0l0,0.113l-0.113,0l0,-0.227c-0.091,-0.107 -0.15,-0.074 -0.226,-0.226l0.113,-0.113zm-1.018,26.57l0,-0.113c0.276,-0.179 0.073,-0.09 0.226,-0.339l0.113,0l0,-0.226c0.076,-0.038 0.151,-0.076 0.226,-0.113c0.076,-0.226 0.151,-0.453 0.227,-0.679c0.075,-0.037 0.15,-0.075 0.226,-0.113l0,-0.226l0.113,0l0,-0.226l0.113,0c0.162,-0.286 0.22,-0.582 0.452,-0.791l0,-0.114l0.113,0c-0.075,0.227 -0.151,0.453 -0.226,0.679l-0.113,0l0,0.226c-0.076,0.038 -0.151,0.075 -0.226,0.113c-0.038,0.151 -0.076,0.302 -0.113,0.452c-0.076,0.038 -0.151,0.076 -0.226,0.113c-0.038,0.151 -0.076,0.302 -0.113,0.453l-0.114,0l0,0.226c-0.075,0.037 -0.15,0.075 -0.226,0.113l0,0.226l-0.113,0l0,0.226l-0.113,0l0,0.226c-0.075,-0.038 -0.151,-0.075 -0.226,-0.113m-1.018,0l0,-0.113c0.19,-0.156 0.443,-0.574 0.566,-0.791l0,-0.227c0.075,-0.037 0.151,-0.075 0.226,-0.113c0.333,-0.526 0.449,-1.188 0.904,-1.582l0,-0.114l0.114,0c-0.076,0.227 -0.151,0.453 -0.227,0.679c-0.075,0.037 -0.15,0.075 -0.226,0.113c-0.075,0.226 -0.151,0.452 -0.226,0.678c-0.075,0.038 -0.151,0.076 -0.226,0.113c-0.038,0.151 -0.075,0.302 -0.113,0.453l-0.113,0l0,0.226c-0.076,0.037 -0.151,0.075 -0.226,0.113l0,0.226l-0.113,0l0,0.226l-0.113,0l0,0.226c-0.076,-0.038 -0.151,-0.075 -0.227,-0.113m-2.713,29.623c-0.708,-0.001 -1.77,0.126 -2.148,-0.227c1.017,0.038 2.035,0.076 3.052,0.114c0.4,0 1.026,-0.08 1.244,0.113l2.827,0l0,0.113c-0.533,0.096 -0.629,0.043 -1.131,0c-1.281,-0.038 -2.563,-0.076 -3.844,-0.113m3.279,0.452l0,0.113l-2.827,0l0,0.113l-1.47,0c-0.454,0 -1.328,0.117 -1.582,-0.113c2.562,-0.075 5.125,-0.151 7.688,-0.226c-0.361,0.323 -1.266,-0.042 -1.809,0.113m-13.229,-16.281c-0.225,-0.068 -0.097,0.015 -0.226,-0.113l0.226,0l0,0.113zm-23.63,-35.502l0,-0.113l-0.113,0l0,-0.113l0.226,0c-0.068,0.226 0.016,0.097 -0.113,0.226m-0.791,2.374l0,0.113l-0.113,0c0.037,-0.113 0.075,-0.226 0.113,-0.339l-0.113,0l0,-0.226l0.226,0l0,0.452l-0.113,0zm-0.226,-0.678c0.126,0.128 0.048,-0.001 0.113,0.226l-0.113,0l0,-0.226zm-1.357,0l0.113,0l0,-0.113l-0.113,0l0,-0.113l0.339,0c-0.038,0.113 -0.075,0.226 -0.113,0.339c0,0 -0.44,-0.016 -0.226,-0.113m0.113,-0.565l-0.113,0l0,-0.227c0.127,0.129 0.048,-0.001 0.113,0.227m-0.226,-1.583c0.226,0.068 0.097,-0.016 0.226,0.113l0.113,0l0,0.113c-0.268,-0.073 -0.212,-0.032 -0.339,-0.226m0.113,1.922l-0.226,0l0,-0.339l0.226,0l0,0.339zm-0.452,-2.148c0.225,0.068 0.097,-0.016 0.226,0.113l0.113,0l0,0.113c-0.268,-0.073 -0.212,-0.032 -0.339,-0.226m-1.922,2.826c-0.097,0.128 0.015,0.018 -0.113,0.113l0,-0.226c0.075,-0.038 0.15,-0.075 0.226,-0.113c0.044,0.225 -0.06,0.144 -0.113,0.226m-0.113,0.339l-0.114,0l0,-0.226c0.127,0.129 0.049,-0.001 0.114,0.226m-0.114,38.555l0,-34.032l5.654,0l0,39.233l0.678,0l0,-0.113c0.678,0.037 1.357,0.075 2.035,0.113l0,-39.233l5.653,0l0,35.841c0,1.069 0.19,2.899 -0.113,3.731l-5.653,0l0,-0.113l-0.565,0l0,0.226l-1.47,0l0,-0.226l-0.678,0l0,0.113l-5.654,0c0.152,-1.65 0.113,-3.71 0.113,-5.54m8.254,-80.501c0,-1.069 0.19,-2.899 -0.113,-3.731c-0.581,0.048 -1.676,0.55 -2.148,0c-0.297,0.013 -0.384,0.045 -0.566,0.113l0,39.459l-5.653,0l0,-36.067c0,-1.069 0.19,-2.899 -0.113,-3.731c0.49,-0.18 1.367,-0.113 2.035,-0.113l3.845,0l0,0.113l0.791,0l0,-0.339c0.415,0.037 0.829,0.075 1.244,0.113l0,0.226c1.903,-0.179 4.245,-0.121 6.331,-0.113l0,39.911l-5.653,0l0,-35.841zm-10.176,40.816c0.127,0.128 0.049,-0.001 0.113,0.226l-0.113,0l0,-0.226zm-0.226,-0.339c0.191,0.129 0.158,0.068 0.226,0.339l-0.113,0c-0.037,-0.113 -0.075,-0.226 -0.113,-0.339m-0.113,-0.227c0.127,0.129 0.048,-0.001 0.113,0.227l-0.113,0l0,-0.227zm-7.914,1.809c0.126,0.129 0.048,-0.001 0.113,0.227l-0.113,0l0,-0.227zm-7.688,4.41l5.54,0l0,39.233l0.791,0l0,-0.113c0.678,0.037 1.357,0.075 2.035,0.113l0,-39.233l5.54,0l0,39.572l-5.653,0l0,-0.113l-0.565,0l0,0.226l-1.47,0l0,-0.226l-0.678,0l0,0.113l-3.958,0c-0.477,0 -1.424,0.128 -1.696,-0.113c-0.067,-0.145 -0.125,0.046 -0.113,-0.113l0.227,-0.113l0,-39.233zm121.88,-5.427l0,-0.113c0.128,-0.097 0.018,0.015 0.114,-0.113l-0.226,0c0.067,0.225 -0.016,0.097 0.112,0.226m-1.809,2.148l-0.339,0l0,0.113l-0.113,0l0,0.113l0.452,0l0,-0.226zm-0.791,-2.6l-0.792,0l0,0.113l0.792,0l0,-0.113zm-1.244,2.713l0,-0.113l-0.113,0l0,0.226l0.678,0l0,-0.113l-0.565,0zm0.113,-2.94l-0.226,0l0,0.113l0.226,0l0,-0.113zm-0.339,2.94c-0.128,-0.097 -0.017,0.015 -0.113,-0.113c-0.323,0.006 -0.484,0.04 -0.678,0.113l0,0.113l0.791,0l0,-0.113zm-5.427,-0.452c0.068,0.226 -0.016,0.097 0.113,0.226c-0.068,-0.226 0.016,-0.097 -0.113,-0.226m-0.113,0.113c-0.21,-0.08 -0.443,-0.117 -0.792,-0.113l0,0.226l0.792,0l0,-0.113zm-0.339,-2.035l-0.453,0l0,0.113l0.453,0l0,-0.113zm-1.47,1.583c-0.226,0.068 -0.097,-0.016 -0.226,0.113l-0.113,0l0,0.452l0.113,0c0.093,-0.147 0.077,-0.135 0.226,-0.226l0,-0.339zm-0.339,1.47c0.127,0.096 0.017,-0.016 0.113,0.113l0.113,0l0,-0.566l-0.226,0l0,0.453zm-0.226,-1.131l-0.226,0l0,0.113l0.226,0l0,-0.113zm-2.035,0c-0.226,-0.068 -0.098,0.016 -0.226,-0.113l-0.114,0l0,0.339l0.34,0l0,-0.226zm-0.34,-1.922l0,0.565l0.114,0c0.037,-0.113 0.075,-0.226 0.112,-0.339c-0.114,-0.087 -0.111,-0.139 -0.226,-0.226m-0.452,2.6l-0.226,0c0.08,0.21 0.117,0.443 0.113,0.792l0.113,0l0,-0.792zm-0.339,-2.939c-0.428,-0.085 -0.706,-0.167 -1.13,0l0,0.113l1.13,0l0,-0.113zm-3.731,0l-0.565,0l0,0.113l0.565,0l0,-0.113zm-1.583,0l-0.678,0l0,0.113l0.678,0l0,-0.113zm-0.792,0l-0.791,0l0,0.113l0.791,0l0,-0.113zm-1.582,0l-0.679,0l0,0.113l0.679,0l0,-0.113zm-6.106,1.696l-0.113,0l0,0.452l0.113,0l0,-0.452zm-0.791,-0.114c-0.468,0.008 -0.579,0.046 -0.678,-0.339l-0.905,0l0,0.113c0.527,0.254 1.062,0.838 1.696,0.905c-0.038,-0.226 -0.075,-0.452 -0.113,-0.679m-0.678,-0.678l-1.583,0l0,0.113c0.426,0.081 1.004,0.121 1.583,0.113l0,-0.226zm-0.114,-1.696l-1.243,0l0,0.113c0.458,0.094 0.76,0.29 1.131,0.452c0.096,-0.127 -0.016,-0.017 0.112,-0.113l0,-0.452zm-1.695,0.226c0.264,0.065 0.422,0.162 0.565,0.339l0.339,0l0,-0.113c-0.301,-0.15 -0.603,-0.301 -0.904,-0.452l0,0.226zm1.583,2.827l0.338,0l0,-0.113c-0.112,-0.038 -0.226,-0.076 -0.338,-0.113c-0.038,-0.076 -0.076,-0.151 -0.114,-0.226c-0.15,-0.038 -0.301,-0.076 -0.452,-0.113c-0.038,-0.076 -0.075,-0.151 -0.113,-0.227c-0.206,-0.132 -0.254,0.001 -0.452,-0.226c-0.267,0.027 -0.28,0.048 -0.452,0.113c0.333,0.511 1.179,0.471 1.583,0.905m-1.583,0.565l1.583,0l0,-0.452c-0.616,-0.143 -0.964,-0.556 -1.583,-0.678l0,1.13zm-0.566,6.784c-1.244,0.038 -2.487,0.075 -3.731,0.113l0,0.226c1.244,-0.038 2.487,-0.075 3.731,-0.113l0,-0.226zm-1.13,-3.279l-2.714,0l0,0.226l3.053,0l0,-0.113l0.791,0c-0.204,-0.181 -0.751,-0.113 -1.13,-0.113m0,-3.392c-0.844,-0.001 -2.067,-0.138 -2.714,0.113c0.191,0.17 0.658,0.113 1.017,0.113c0.968,0.002 1.886,-0.081 2.714,-0.113c-0.19,-0.17 -0.659,-0.112 -1.017,-0.113m-2.827,-3.731c0.179,0.166 0.667,0.126 1.018,0.113c-0.18,-0.166 -0.667,-0.125 -1.018,-0.113m0.678,-1.583l0,-0.113c-0.112,0.038 -0.226,0.076 -0.339,0.113l0,0.113l0.113,0l0,-0.113l0.226,0zm-0.791,-0.339l0,0.339c0.308,-0.086 0.257,-0.027 0.339,-0.339l-0.339,0zm0.113,-1.131c-0.326,0.082 -0.375,0.122 -0.452,0.453c0.188,0.037 0.377,0.075 0.565,0.113c-0.038,-0.189 -0.075,-0.377 -0.113,-0.566m-0.565,2.036l-0.679,0l0,0.226c-0.113,-0.076 -0.226,-0.151 -0.339,-0.226c-0.097,0.114 -0.194,0.159 -0.339,0.226c-0.097,0.127 0.015,0.017 -0.113,0.113l0,0.113c0.676,-0.019 1.148,-0.151 1.356,0l0.679,0c-0.097,-0.128 0.015,-0.018 -0.113,-0.113c-0.249,-0.34 -0.102,-0.212 -0.452,-0.113l0,-0.226zm-1.583,0c0.067,0.225 -0.016,0.097 0.113,0.226l0,-0.113c0.127,-0.097 0.017,0.015 0.113,-0.113l-0.226,0zm-2.148,4.974l3.618,0l0,-0.226l-3.618,0l0,0.226zm-0.566,-3.957c0.252,0.226 1.961,0.125 2.488,0.113c-0.251,-0.226 -1.961,-0.125 -2.488,-0.113m-0.226,7.123l-1.809,0l0,0.226l1.809,0l0,-0.226zm0,-3.279c-0.81,-0.3 -2.68,-0.124 -3.731,-0.113l0,0.113l0.565,0l0,0.113l3.166,0l0,-0.113zm-3.844,6.784c1.244,0.038 2.487,0.075 3.731,0.113l0,-0.226c-1.244,-0.038 -2.487,-0.075 -3.731,-0.113l0,0.226zm-0.113,-8.48l-3.279,0l0,-0.113l-0.113,0c-0.038,0.076 -0.076,0.151 -0.113,0.226c-0.151,0.038 -0.301,0.076 -0.452,0.113c-0.038,0.076 -0.075,0.151 -0.113,0.227l-0.226,0l0,0.113l-0.227,0c-0.037,0.075 -0.075,0.15 -0.113,0.226l-0.226,0c-0.037,0.075 -0.075,0.151 -0.113,0.226l-0.226,0c-0.076,0.113 -0.151,0.226 -0.226,0.339c-0.532,0.368 -1.237,0.462 -2.148,0.452l0,0.453l-0.453,0l0,-0.113c-0.112,-0.038 -0.226,-0.076 -0.339,-0.113l0,0.226l-0.113,0c-0.111,0.101 -0.056,0.158 -0.226,0.226l0,-0.113l-0.113,0l0,0.113l-0.226,0l0,0.113l-0.679,0l0,0.113c-0.126,0.128 -0.048,-0.001 -0.112,0.226c0.112,0.038 0.226,0.075 0.339,0.113l0,0.113l0.339,0l0,0.113c0.075,-0.037 0.15,-0.075 0.226,-0.113c0.038,0.076 0.076,0.151 0.113,0.226c0.075,-0.037 0.151,-0.075 0.226,-0.113c0.099,0.259 0.12,0.5 0.113,0.905l0.113,0c0.184,-0.319 -0.129,-0.758 0.227,-1.131c0.037,-0.113 0.074,-0.226 0.112,-0.339c1.446,0 3.071,-0.094 4.184,0.226c0.866,-0.075 1.733,-0.151 2.6,-0.226c0.059,0.548 0.228,0.824 0.227,1.47c0.411,-0.088 0.561,-0.224 0.904,-0.113c0.37,-1.005 -0.011,-3.185 0.113,-4.071m-8.819,-7.688c-0.301,0.038 -0.603,0.075 -0.905,0.113l0,0.339c0.293,0.056 0.5,0.115 0.905,0.113l0,-0.565zm8.706,26.118l0,0.226l3.844,0c-0.405,-0.406 -2.96,-0.243 -3.844,-0.226m3.731,3.391l-3.731,0l0,0.226l3.731,0l0,-0.226zm-3.844,3.392l0,0.227l3.844,0l0,-0.114c-0.833,-0.308 -2.767,-0.124 -3.844,-0.113m0.226,-10.175l0,0.226c1.058,-0.006 2.912,-0.189 3.731,0.113l0,-0.226c-1.039,-0.191 -2.51,-0.122 -3.731,-0.113m3.844,-3.166l0,-0.113c-1.281,-0.038 -2.563,-0.075 -3.844,-0.113l0,0.226c0.878,0.015 2.02,-0.084 2.714,0.113c0.302,0.086 0.883,0.007 1.017,-0.113l0.113,0zm0.791,-6.671l3.844,0l0,-0.226l-3.844,0l0,0.226zm0,3.279c0.833,0.308 2.768,0.124 3.845,0.113l0,-0.226l-3.845,0l0,0.113zm0,3.505l2.714,0c0.36,-0.001 0.827,0.057 1.017,-0.113l0.114,0l0,-0.113l-3.845,0l0,0.226zm0.114,3.392l2.6,0c0.36,-0.001 0.827,0.057 1.017,-0.113l0.114,0l0,-0.113l-3.845,0c0.038,0.075 0.076,0.151 0.114,0.226m1.017,3.279l2.714,0c-0.205,-0.182 -0.752,-0.113 -1.131,-0.113l-2.714,0c0.205,0.181 0.752,0.112 1.131,0.113m-1.131,3.392l3.845,0l0,-0.113c-0.618,-0.231 -3.229,-0.235 -3.845,0l0,0.113zm0,3.392l3.845,0l0,-0.114c-0.833,-0.308 -2.768,-0.124 -3.845,-0.113l0,0.227zm4.749,-13.455c0.351,0.01 0.838,0.055 1.017,-0.113l2.714,0l0,-0.113c-0.288,-0.106 -1.127,-0.24 -1.583,-0.113l0,0.113l-2.261,0c0.038,0.075 0.076,0.151 0.113,0.226m0,3.279l3.731,0l0,-0.226l-2.487,0c-0.36,0 -0.827,-0.057 -1.017,0.113l-0.227,0l0,0.113zm0,3.392l3.844,0l0,-0.226l-2.6,0c-0.36,0 -0.827,-0.057 -1.017,0.113l-0.227,0l0,0.113zm0.113,3.392l2.714,0c0.359,-0.001 0.826,0.057 1.017,-0.113l0.114,0l0,-0.114l-3.845,0l0,0.227zm2.827,3.392l0.904,0l0,-0.114l0.114,0l0,-0.113c-1.085,-0.005 -3.004,-0.197 -3.845,0.113c0.268,0.245 2.255,0.115 2.827,0.114m-7.123,-31.658c-0.288,0.059 -0.521,0.152 -0.678,0.339l-0.226,0l0,0.113c0.352,-0.073 0.504,-0.194 0.904,-0.226l0,-0.226zm-13.341,1.583c0.9,-0.005 1.371,-0.065 2.035,-0.113l0,0.339l0.112,0l0,0.113l0.34,0c0.008,-1.251 -0.372,-0.996 -0.792,-1.696l-0.339,0l0,0.452l-0.113,0l0,0.113l-0.339,0l0,0.226l-0.339,0.114l0,-0.227c-0.366,0.044 -0.33,0.103 -0.565,0.227l0,0.452zm11.871,-8.367l0.452,0l0,0.113l0.114,0l0,-1.244c-0.189,0.038 -0.378,0.076 -0.566,0.114l0,0.112c-0.109,0.149 -0.014,0.498 0,0.905m-14.02,24.874c0.038,0.113 0.076,0.226 0.113,0.339l0.113,0l0,-0.791l-0.113,0l0,0.452l-0.113,0zm-2.148,-9.271l-0.565,0l0,-0.113c-0.527,-0.155 -0.658,0.088 -0.792,-0.452c-0.246,-0.054 -0.32,-0.073 -0.452,-0.227l-0.339,0l0,0.113l-0.113,0c-0.07,0.142 0.191,0.083 0.226,0.227c-0.08,0.109 -0.168,0.055 -0.226,0.226c0.113,0.037 0.226,0.075 0.339,0.113c0.113,0.414 0.226,0.829 0.339,1.243l0.339,0c-0.068,-0.225 0.016,-0.097 -0.113,-0.226c0.284,-0.327 0.366,-0.078 0.792,-0.226l0,-0.113c0.188,-0.038 0.377,-0.075 0.565,-0.113c-0.038,-0.113 -0.075,-0.226 -0.113,-0.339l0.113,-0.113zm-0.113,-10.176c-0.381,-0.047 -0.467,-0.04 -0.905,-0.113l0,0.678c0.34,-0.075 0.679,-0.15 1.018,-0.226c-0.038,-0.113 -0.075,-0.226 -0.113,-0.339m-1.244,9.271l-0.339,0l0,0.113l0.339,0l0,-0.113zm-1.13,0.566c-0.113,-0.038 -0.227,-0.076 -0.34,-0.113c-0.037,0.075 -0.075,0.15 -0.113,0.226l-0.452,0l0,0.113l0.905,0l0,-0.226zm-0.113,-0.453l-0.226,0l0,0.113l0.226,0l0,-0.113zm-0.34,0c-0.225,-0.068 -0.097,0.016 -0.226,-0.113l-0.113,0l0,0.34l0.339,0l0,-0.227zm-0.452,-0.113l-0.339,0l0,0.339l0.339,0l0,-0.339zm-0.452,0l-0.339,0l0,0.339l0.339,0l0,-0.339zm-0.565,0l0,0.34l0.113,0c0.096,-0.198 -0.065,-0.284 -0.113,-0.34m-1.131,0l0,0.34l0.113,0c0.096,-0.198 -0.065,-0.284 -0.113,-0.34m-0.226,0c0.068,0.226 -0.016,0.098 0.113,0.226c-0.068,-0.225 0.015,-0.097 -0.113,-0.226m0,-0.452c0.068,0.226 -0.016,0.097 0.113,0.226c-0.068,-0.225 0.015,-0.097 -0.113,-0.226m-0.339,-1.244l-0.226,0l0,0.113l0.226,0l0,-0.113zm-0.566,0c-0.096,-0.127 0.015,-0.017 -0.113,-0.113c-0.037,0.113 -0.075,0.226 -0.113,0.339l0.339,0c-0.068,-0.225 0.016,-0.097 -0.113,-0.226m-0.339,1.696l-0.226,0l0,0.226l0.226,0l0,-0.226zm0,-0.452l-0.113,0c-0.038,0.113 -0.075,0.226 -0.113,0.339l0.226,0l0,-0.339zm0,-0.452l-0.226,0c0.038,0.113 0.075,0.226 0.113,0.339l0.113,0l0,-0.339zm0,-0.452l-0.113,0c-0.038,0.113 -0.075,0.226 -0.113,0.339l0.226,0l0,-0.339zm0,-0.453l-0.226,0c0.038,0.113 0.075,0.226 0.113,0.339l0.113,0l0,-0.339zm5.54,4.297l0.226,0c-0.087,-0.328 -0.062,-0.025 0,-0.34l-0.226,0l0,0.34zm-9.61,-2.601c-0.843,-0.001 -2.067,-0.138 -2.714,0.113c0.205,0.181 0.751,0.113 1.131,0.113c0.867,-0.037 1.734,-0.075 2.6,-0.113c-0.19,-0.17 -0.658,-0.112 -1.017,-0.113m-2.714,3.618c0.502,0.01 2.018,0.108 2.262,-0.113l1.582,0l0,-0.113l-0.113,-0.113c-0.301,0.038 -0.603,0.075 -0.904,0.113l-2.827,0l0,0.226zm0.113,3.392c1.244,-0.038 2.488,-0.075 3.731,-0.113l0,-0.226c-1.243,0.038 -2.487,0.075 -3.731,0.113l0,0.226zm0,3.279c0.528,0.159 2.858,0.004 3.845,0l0,-0.226c-0.528,-0.01 -2.236,-0.115 -2.488,0.113l-1.357,0l0,0.113zm0.113,3.392l3.731,0l0,-0.226l-3.731,0l0,0.226zm0,3.392l3.845,0l0,-0.226l-2.714,0c-0.36,0 -0.827,-0.057 -1.018,0.113l-0.113,0l0,0.113zm0.113,3.392l2.714,0c0.36,-0.001 0.827,0.057 1.018,-0.113l0.113,0l0,-0.114l-3.845,0l0,0.227zm0,3.392c1.282,-0.038 2.563,-0.076 3.845,-0.114c-0.205,-0.181 -0.752,-0.112 -1.131,-0.113l-2.714,0l0,0.227zm-1.017,-0.227l-3.844,0l0,0.226l3.844,0l0,-0.226zm0,-3.278c-0.832,-0.309 -2.768,-0.125 -3.844,-0.114l0,0.227l3.844,0l0,-0.113zm0,-3.392c-0.617,-0.231 -3.228,-0.235 -3.844,0l0,0.113l3.844,0l0,-0.113zm0,-3.392c-0.617,-0.231 -3.228,-0.235 -3.844,0l0,0.113l3.844,0l0,-0.113zm0,-3.392l-3.844,0c0.037,0.075 0.075,0.151 0.113,0.226l2.6,0c0.36,-0.001 0.827,0.057 1.018,-0.113l0.113,0l0,-0.113zm0,-3.392l-3.844,0c0.037,0.075 0.075,0.151 0.113,0.226l2.6,0c0.36,0 0.827,0.057 1.018,-0.113l0.113,0l0,-0.113zm0,-3.392l-3.844,0l0,0.226l3.844,0l0,-0.226zm-0.113,-3.392l-3.618,0l0,0.226l3.618,0l0,-0.226zm-4.41,3.392l-2.713,0c-0.442,-0.002 -0.81,-0.166 -1.018,0l-0.113,0l0,0.113c1.282,0.038 2.563,0.076 3.844,0.113l0,-0.226zm-0.113,-3.392l-3.278,0c0.235,0.212 0.644,0.006 1.017,0.113c0.553,0.159 1.527,0.129 2.261,0.113l0,-0.226zm0,7.01l0,-0.226c-1.243,-0.038 -2.487,-0.075 -3.731,-0.113l0,0.226c1.244,0.038 2.488,0.075 3.731,0.113m-3.844,3.053l0,0.226l2.714,0c0.433,0.001 0.872,0.104 1.017,0l0.113,0l0,-0.113c-1.281,-0.038 -2.563,-0.075 -3.844,-0.113m-0.113,3.392c0.038,0.075 0.076,0.15 0.113,0.226l3.731,0l0,-0.113c-0.832,-0.309 -2.767,-0.124 -3.844,-0.113m-0.113,6.783l0,0.114c0.832,0.308 2.768,0.124 3.844,0.113l0,-0.227l-3.844,0zm0,3.505l0.905,0c0.739,0.214 2.009,0.131 2.939,0.114l0,-0.227l-3.844,0l0,0.113zm3.957,-6.67l0,-0.113c-0.832,-0.309 -2.767,-0.125 -3.844,-0.113c0.038,0.075 0.076,0.15 0.113,0.226l3.731,0zm-4.748,-20.804l-0.679,0c0.038,0.075 0.076,0.151 0.113,0.226l0.34,0l0,-0.113l0.226,0l0,-0.113zm-0.792,0.113c-0.172,-0.066 -0.184,-0.09 -0.452,-0.113c0.038,0.075 0.075,0.151 0.113,0.226l0.339,0l0,-0.113zm-0.452,3.844l0.339,0l0,-0.113l-0.339,0l0,0.113zm-0.565,-1.696l-0.227,0c-0.037,0.302 -0.075,0.603 -0.113,0.905c0.308,-0.078 0.256,-0.153 0.566,-0.226c-0.155,-0.291 -0.209,-0.193 -0.226,-0.679m0.226,-2.261l-0.566,0l0,0.565l0.453,0c0.096,-0.127 -0.016,-0.017 0.113,-0.113l0,-0.452zm-0.566,3.505c0.151,-0.038 0.302,-0.075 0.453,-0.113l0,-0.226c-0.113,0.038 -0.226,0.075 -0.34,0.113l0,0.113l-0.113,0l0,0.113zm-0.452,-1.357c-0.344,-0.105 -0.104,-0.112 -0.452,0l0,0.113l0.452,0l0,-0.113zm0,-2.148l-0.904,0c0.013,0.297 0.044,0.384 0.113,0.565l0.791,0l0,-0.565zm-4.409,0.565l-0.226,0l0,0.34c0.113,0.037 0.226,0.075 0.339,0.113c-0.038,-0.151 -0.076,-0.302 -0.113,-0.453m-1.131,-0.678l-0.678,0l0,0.226l0.565,0l0,-0.113l0.113,0l0,-0.113zm-1.583,0l-0.678,0l0,0.226l0.452,0l0,-0.113l0.226,0l0,-0.113zm-0.791,0l-0.678,0l0,0.113l0.678,0l0,-0.113zm-1.244,2.714l-0.452,0l0,0.113l0.452,0l0,-0.113zm-3.731,-2.714l-0.905,0l0,0.113l0.905,0l0,-0.113zm-1.131,2.94l0,1.13l-0.113,0l0,0.113c0.218,-0.139 0.838,-1.167 0.905,-1.469l-0.679,0c-0.034,0.206 -0.113,0.226 -0.113,0.226m-0.113,0l-0.226,0c0.009,0.376 0.063,0.511 0.113,0.791l0.113,0l0,-0.791zm-0.565,-1.357c-0.075,0.038 -0.151,0.075 -0.226,0.113l0,-0.565l-0.113,0c-0.125,-0.183 -0.159,-0.19 -0.226,-0.453l-0.227,0c0.03,0.321 0.047,0.413 0.227,0.566c0,0 -0.016,0.439 -0.113,0.226c-0.158,-0.027 0.046,-0.107 -0.114,-0.113l0,1.13l0.227,0s-0.006,-0.427 0.113,-0.226l0,0.226l0.226,0c0.008,-0.061 -0.066,-0.468 0.113,-0.339c0.13,0.094 -0.047,0.12 0.113,0.113l0,-0.678zm0,-1.131l-0.452,0c0.096,0.128 -0.015,0.018 0.113,0.113c0.129,0.191 0.068,0.158 0.339,0.227l0,-0.34zm-1.244,0c0.086,0.52 0.125,1.07 0.113,1.922l0.113,0l0,-0.565l0.113,0c0.179,-0.572 -0.09,-1.167 -0.339,-1.357m-0.226,1.244c0.158,0.027 -0.047,0.107 0.113,0.113l0,-0.678c-0.075,0.037 -0.151,0.075 -0.226,0.113c0.105,-0.409 0.202,-0.242 0.226,-0.792c-0.113,0.038 -0.226,0.076 -0.339,0.113c-0.084,-0.045 0,-0.145 -0.226,-0.113l0,0.113l-0.113,0l0,-0.113l-0.339,0c0.107,0.203 0.161,0.176 0.226,0.453l-0.226,0c0.025,0.479 0.105,0.458 0,0.791c0.424,0.19 0.23,-0.065 0.452,0.565c0.188,0.038 0.377,0.076 0.565,0.113c-0.038,-0.337 -0.01,-0.31 -0.226,-0.452c0,0 0.016,-0.44 0.113,-0.226m-0.791,-1.583l-0.226,0l0,0.113l0.226,0l0,-0.113zm-0.339,2.148l-0.226,0l0,0.226l0.226,0l0,-0.226zm0,-1.017l-0.227,0l0,-0.113c0.076,-0.038 0.151,-0.076 0.227,-0.113l0,-0.453l-0.453,0l0,0.679l0.226,0c0.117,0.109 -0.113,0.113 -0.113,0.113l0,0.452l0.34,0l0,-0.565zm-0.113,-1.809l-0.114,0l0,-0.113l-0.113,0l0,0.565l0.227,0l0,-0.452zm-0.34,2.826l0.113,0c0.093,-0.146 0.078,-0.134 0.227,-0.226l0,-0.113l-0.34,0l0,0.339zm0.679,0.226l0.565,0l0,-0.113c-0.188,-0.037 -0.377,-0.075 -0.565,-0.113l0,0.226zm-1.583,-0.904c-0.076,0.038 -0.151,0.075 -0.226,0.113c0.095,-0.424 0.233,-0.633 0.226,-1.244l-0.905,0l0,2.035l0.226,0s-0.006,-0.427 0.113,-0.226l0,0.226l0.566,0l0,-0.904zm-1.018,-1.131c-0.113,0.038 -0.226,0.076 -0.339,0.113l0,1.696c0.147,0.093 0.135,0.078 0.226,0.226l0.113,0l0,-2.035zm-1.243,0.905c0.157,0.027 -0.047,0.107 0.113,0.113l0,-1.018c-0.35,0.001 -0.581,0.034 -0.792,0.113c-0.005,0.635 -0.058,1.465 0.113,1.922l0.679,0c0.006,-0.446 0.005,-0.707 -0.227,-0.904c0,0 0.016,-0.44 0.114,-0.226m0.113,-1.244l-0.226,0l0,0.113l0.226,0l0,-0.113zm-0.566,0l-0.339,0l0,0.113l0.339,0l0,-0.113zm-0.678,1.131l-0.113,0l0,1.017c0.113,0.038 0.226,0.076 0.339,0.113c0.097,-0.127 -0.015,-0.017 0.113,-0.113c0.002,-0.406 -0.014,-0.642 -0.113,-0.904c-0.226,-0.068 -0.097,0.016 -0.226,-0.113m-7.688,-1.018l-0.226,0l0,0.339c0.341,0.158 0.613,0.361 0.791,0.679l0.113,0c-0.075,-0.576 -0.442,-0.621 -0.678,-1.018m55.853,29.284l0,-0.227l-0.113,0c-0.038,0.264 -0.076,0.528 -0.113,0.792l0.452,0c-0.03,-0.32 -0.047,-0.412 -0.226,-0.565m-0.113,0.791l0.226,0l0,-0.113l-0.226,0l0,0.113zm-1.922,4.523l-0.113,0l0,-0.227c-0.113,0.076 -0.227,0.151 -0.34,0.227c0.076,0.15 0.151,0.301 0.227,0.452c0.075,-0.038 0.15,-0.076 0.226,-0.113l0,-0.339zm-1.922,0l0,0.339l0.113,0c0.096,-0.198 -0.065,-0.284 -0.113,-0.339m-1.809,-0.114l0,0.453c0.225,-0.068 0.097,0.015 0.226,-0.113c0.126,-0.129 0.048,0.001 0.113,-0.226l-0.339,-0.114m-1.696,0.114l0,0.339l0.113,0c0.096,-0.198 -0.065,-0.284 -0.113,-0.339m-1.47,-0.114l-0.339,0l0,0.114l-0.113,0c0.079,0.165 0.1,0.185 0.113,0.452l0.339,0l0,-0.566zm-1.922,0.114l-0.226,0c0.037,0.113 0.075,0.226 0.113,0.339l0.113,0l0,-0.339zm-1.809,-0.114c-0.226,0.068 -0.098,-0.015 -0.226,0.114l-0.114,0c0.08,0.165 0.101,0.185 0.114,0.452l0.226,0l0,-0.566zm-2.035,0.114c0.068,0.225 -0.016,0.097 0.113,0.226c-0.068,-0.226 0.015,-0.098 -0.113,-0.226m18.881,0.226c-0.068,-0.226 0.016,-0.098 -0.113,-0.226c0.068,0.225 -0.016,0.097 0.113,0.226m1.696,0c0.127,-0.097 0.018,0.015 0.113,-0.113c-0.113,-0.076 -0.226,-0.151 -0.339,-0.227c-0.069,0.181 -0.105,0.268 -0.113,0.566c0.268,-0.073 0.211,-0.032 0.339,-0.226m1.583,0c-0.068,-0.226 0.016,-0.098 -0.114,-0.226c0.069,0.225 -0.015,0.097 0.114,0.226m1.696,0.226c0.126,-0.129 0.048,0.001 0.113,-0.226c0.127,-0.129 0.048,0.001 0.113,-0.226l-0.113,0c-0.128,-0.127 0.001,-0.049 -0.226,-0.114c-0.067,0.173 -0.09,0.184 -0.113,0.453c0.226,0.068 0.097,-0.016 0.226,0.113m1.809,-0.226c-0.068,-0.226 0.016,-0.098 -0.113,-0.226c0.068,0.225 -0.016,0.097 0.113,0.226m1.357,0.226c0.337,-0.039 0.31,-0.011 0.452,-0.226c0.127,-0.097 0.018,0.015 0.113,-0.113c-0.146,-0.093 -0.135,-0.078 -0.226,-0.227l-0.227,0l0,0.453l-0.112,0l0,0.113zm3.844,0l0.226,0c0.037,-0.113 0.075,-0.226 0.113,-0.339c-0.113,-0.076 -0.226,-0.151 -0.339,-0.227c-0.097,0.128 0.015,0.018 -0.113,0.114c0.027,0.266 0.048,0.279 0.113,0.452m43.19,-28.718l-6.332,0l0,-0.113c0.855,-0.317 3.263,-0.113 4.41,-0.113c0.607,0 1.376,-0.05 1.809,0.113c0.211,-0.565 0.124,-1.622 0.113,-2.375l-0.565,0c0.02,-0.225 -0.007,-0.34 0.112,-0.452l0.227,0c-0.038,-0.075 -0.076,-0.151 -0.113,-0.226c0.15,-0.038 0.301,-0.075 0.452,-0.113c-0.127,-0.463 -0.051,-0.132 -0.339,-0.339c-0.086,-0.062 -0.069,-0.147 -0.227,-0.226l0,-0.113c-0.112,0.037 -0.226,0.075 -0.338,0.113c0.037,0.113 0.074,0.226 0.112,0.339l-0.112,0c-0.081,0.169 -0.084,0.187 -0.114,0.452l-0.339,0l0,0.226c-3.367,0.164 -7.189,0.12 -10.741,0.113c-0.075,0.452 -0.15,0.905 -0.226,1.357c-0.226,-0.127 -0.539,-0.345 -0.678,-0.565l-0.226,0c0.234,-0.194 -0.053,-0.346 -0.227,-0.453l0,-0.113c0.341,0.086 0.532,0.296 0.679,0.566l0.226,0c-0.097,-0.128 0.015,-0.018 -0.113,-0.113c-0.006,-0.324 -0.04,-0.484 -0.113,-0.679l-0.792,0l0,0.113l-0.113,0l0,-0.113l-0.565,0c-0.03,0.007 -0.036,0.147 -0.226,0.113l0,-0.113l-0.905,0c-0.075,0.603 -0.15,1.206 -0.226,1.809l-0.113,0c-0.037,-0.113 -0.075,-0.226 -0.113,-0.339l-0.113,0l0.113,-0.113c-0.038,-0.565 -0.075,-1.131 -0.113,-1.696l-0.792,0c-0.016,0.802 0.189,1.092 0.679,1.357l0,0.226c-0.233,-0.133 -0.435,-0.331 -0.565,-0.565l-0.114,0l0,1.809l0.679,0l0,-0.113l5.653,0l0,0.339c-5.149,-0.01 -8.957,0.012 -14.133,0c0.069,-0.226 -0.015,-0.098 0.113,-0.226c0.26,-0.229 1.124,-0.113 1.583,-0.113c1.521,0 3.168,0.067 4.523,0.113c-0.015,-0.685 -0.152,-2.452 0.226,-2.714l0,-0.113l-0.905,0c-0.038,0.075 -0.075,0.151 -0.113,0.226c-0.565,-0.038 -1.131,-0.075 -1.696,-0.113l0,0.113l-0.904,0c-0.065,-0.026 -0.142,-0.38 -0.566,-0.226c-0.038,0.075 -0.075,0.151 -0.112,0.226l-1.018,0c-0.97,0.001 -2.923,-0.08 -3.392,0.339c-0.308,0.087 -0.258,0.027 -0.339,0.34l-0.339,0l0,0.226c-0.114,-0.038 -0.226,-0.076 -0.34,-0.113l0,-0.113l-0.113,0c0.038,-0.113 0.075,-0.227 0.113,-0.34c-0.113,-0.037 -0.226,-0.075 -0.339,-0.113l0,0.226c-0.505,0.06 -0.508,0.203 -0.678,0.566c0.037,0.113 0.075,0.226 0.113,0.339l-0.113,0c-0.143,0.227 -0.375,0.386 -0.679,0.452l0,-0.226l-0.226,0c0.038,-0.113 0.076,-0.226 0.113,-0.339c-0.075,0.038 -0.15,0.075 -0.226,0.113l0,-0.452c-0.546,0.005 -1.206,0.028 -1.582,-0.113l0,-0.566l-1.923,0l0,-0.226l-0.113,0c0.113,6.293 0.227,12.589 0.339,18.882c0,1.604 -0.01,3.439 0.114,4.861c0.041,0.471 0.114,1.548 -0.114,1.809l0,1.696c-0.806,-0.299 -3.115,-0.159 -3.957,0l0,-1.583l-0.113,0l0,-0.339c-0.051,-1.125 0.149,-2.571 -0.113,-3.505c-0.113,-7.423 -0.226,-14.849 -0.339,-22.273c-0.226,0.068 -0.098,-0.016 -0.226,0.113c-0.264,0.304 -0.113,1.402 -0.113,1.922l0,25.665c-1.098,-0.202 -2.973,-0.204 -4.07,0l0,-27.7c-0.114,-0.038 -0.227,-0.075 -0.34,-0.113c-0.113,6.368 -0.226,12.739 -0.339,19.108c-0.038,1.695 -0.075,3.392 -0.113,5.087c0,0.541 0.162,1.717 -0.113,2.035l0,1.583c-0.679,-0.258 -1.95,-0.114 -2.827,-0.113c-0.358,0.001 -0.829,-0.058 -1.017,0.113l-0.113,0c0.021,-5.164 -0.012,-10.898 0.226,-16.168l0,-4.183c0,-0.46 0.114,-1.322 -0.113,-1.583c-0.264,-0.075 -0.528,-0.151 -0.791,-0.226c-0.076,0.452 -0.151,0.905 -0.227,1.357l-1.13,0l0,-0.113l-0.453,0l0,-0.113c-0.188,-0.033 -0.199,0.107 -0.226,0.113l-0.565,0c-0.076,-0.038 -0.151,-0.076 -0.226,-0.113l0,0.113l-0.452,0l0,0.113l-3.844,0c-0.076,-0.377 -0.152,-0.754 -0.227,-1.131c-0.344,0.395 0.133,1.477 -0.113,1.922l-0.113,0l0,0.113l-0.339,0c-0.347,0.06 -0.612,0.091 -0.792,0.339l-0.112,0c0.037,0.151 0.075,0.302 0.112,0.453l-0.112,0l0,0.339l-0.114,0l0,0.452l-0.113,0c0.076,0.415 0.151,0.829 0.227,1.244c0.426,-0.025 0.897,-0.213 1.13,0c0.274,0.069 0.248,0.119 0.452,0.226c0.086,0.454 0.121,1.086 0.114,1.696c0.127,0.097 0.017,-0.015 0.112,0.113l2.827,0c-0.268,0.24 -2.362,0.125 -2.939,0.113l0,0.792c-0.35,0.066 -0.755,0.119 -1.244,0.113l0,0.339l0.226,0l0,0.113c-0.119,-0.008 -0.252,0.306 -0.226,0.452l0.113,0l0,1.47c0.025,0.058 0.152,0.009 0.226,0.339l-0.226,0c0.02,0.347 0.136,0.765 0,1.244l-0.113,0c0.038,0.603 0.075,1.206 0.113,1.809l0.339,0l0,2.035l-0.339,0c0.024,0.266 0.105,0.34 0.113,0.452l-0.113,0.226l0.226,0c-0.048,0.114 -0.194,0.23 -0.113,0.453l0.113,0l0,0.226c0.155,0.307 0.32,0.389 0.339,0.904c-0.274,0.07 -0.248,0.119 -0.452,0.226l0,0.339l-0.339,0l0,0.114l0.226,0l0,0.226l-0.113,0c0.006,-0.147 -0.313,-0.179 -0.452,-0.113l0,0.113c-0.187,0.121 -0.186,0.163 -0.453,0.226l0,0.226l0.226,0l0,0.113l-0.339,0c0.075,0.151 0.151,0.301 0.226,0.452l0.113,0l0,-0.226c0.226,-0.068 0.097,0.016 0.227,-0.113c0.323,0.005 0.483,0.04 0.678,0.113c-0.012,0.566 -0.103,0.579 -0.678,0.565c0.066,0.173 0.09,0.184 0.112,0.453c0.335,0.123 0.342,0.129 0.679,0l0,0.339c0.909,-0.149 2.586,-0.004 3.844,0c-0.281,0.251 -2.663,0.124 -3.279,0.113l0,0.226c-0.49,-0.066 -0.415,-0.215 -1.017,-0.226l0,0.226c1.382,0.252 3.288,0.123 4.861,0.113c-0.189,0.171 -0.659,0.113 -1.017,0.113l-2.827,0l0.113,0.226l-0.226,0c-0.09,0.05 0.003,0.135 -0.226,0.113l0,-0.113l-0.113,0c-0.113,0.114 0.039,0.367 -0.113,0.453c-0.223,0.126 -0.492,-0.147 -0.565,-0.113l0,0.113c-0.128,0.096 -0.018,-0.016 -0.114,0.113c0.114,0.037 0.227,0.075 0.34,0.113c-0.031,0.508 -0.179,0.561 -0.34,0.904l0.227,0c0.113,0.606 0.121,1.488 0.113,2.261l0.791,0l0,-1.809c5.294,-0.01 10.122,-0.236 15.49,-0.226c-0.003,1.563 -0.004,2.515 0,3.958c0.226,0.068 0.097,-0.016 0.226,0.113l0.226,0l0,0.113l-0.339,0l0,0.113l-0.113,0l0,0.339c-1.9,0.021 -3.383,0 -5.088,0c-0.639,0 -1.758,0.163 -2.035,-0.226l-5.653,0c-0.853,0 -2.055,0.128 -2.714,-0.113l0,-1.809l-0.791,0c-0.001,0.708 0.015,1.489 0.113,2.035l0.226,0c0.027,0.435 0.083,0.582 0.226,0.904l0.113,0l0,1.018l0.113,0c0.099,0.367 -0.153,0.564 -0.113,0.791l0.113,0c-0.037,1.432 -0.075,2.865 -0.113,4.297c-0.471,0.028 -0.531,0.149 -0.904,0.226l0,0.339l-0.114,0c-0.065,-0.173 -0.09,-0.184 -0.112,-0.452c-0.345,0.105 -0.105,0.112 -0.453,0l0,0.113l-0.113,0c0.069,0.155 0.21,0.351 0.339,0.452l0,0.113c0.202,0.103 0.354,-0.078 0.453,-0.113l0,0.452l-0.34,0l0,0.113c0.313,0.14 0.773,0.214 1.131,0.34c0.176,0.928 0.276,3.164 0,4.07l0,0.565l-0.113,0l0,2.601l-0.113,0c-0.151,0.188 -0.301,0.377 -0.452,0.565l-0.453,0l0,0.113l-0.113,0c-0.087,0.328 -0.062,0.024 0,0.339c-0.113,0.038 -0.226,0.076 -0.339,0.113l0,-0.339c-0.127,-0.097 -0.018,0.015 -0.113,-0.113l-1.47,0c0.066,0.173 0.091,0.184 0.114,0.452l-0.227,0l0,-0.452c-0.188,0.038 -0.377,0.075 -0.565,0.113l0,-0.339c-0.113,-0.038 -0.226,-0.075 -0.339,-0.113c-0.076,-0.113 -0.151,-0.226 -0.226,-0.339l-0.113,0c-0.242,-0.49 0.173,-1.207 0.113,-1.583l-0.113,0c0.037,-0.226 0.075,-0.453 0.113,-0.679l-0.113,0l0,-0.565l-0.114,0c-0.037,-0.603 -0.075,-1.206 -0.113,-1.809c0,-0.53 -0.12,-2.112 0.113,-2.374l0,-0.226c0.34,-0.076 0.679,-0.151 1.018,-0.227l0,-0.226l-0.791,0l0,0.113c-0.189,-0.037 -0.377,-0.075 -0.566,-0.113c-0.037,0.076 -0.075,0.151 -0.113,0.226c-0.403,0.004 -0.765,-0.017 -1.017,-0.113l0,-0.678l1.13,0l0,0.226c0.603,-0.075 1.206,-0.151 1.809,-0.226l0,-0.113l0.114,0l0,-0.339c-0.232,0.01 -0.372,0.118 -0.453,0.113l0,-0.113c-0.415,-0.038 -0.829,-0.076 -1.244,-0.113c-0.037,-2.035 -0.075,-4.071 -0.113,-6.106l0.226,0c0.076,-0.226 0.151,-0.452 0.227,-0.678l0.113,0c-0.02,-0.125 -0.311,-0.124 -0.226,-0.226c0.113,-0.038 0.226,-0.075 0.339,-0.113l0,-0.226l0.113,0l0,-1.696l-0.792,0c0.006,0.634 0.058,1.464 -0.113,1.922l-8.366,0l0,0.226l-2.601,0c-0.433,-0.001 -0.872,-0.105 -1.017,0c-1.063,0.006 -2.653,0.202 -3.505,-0.113l0,-1.922l0.113,0c0.034,-0.156 -0.024,0.014 -0.113,-0.113l0,-0.113l0.113,0c0.049,-0.25 -0.112,-0.333 -0.113,-0.34l0,-1.469l-0.34,0c0.228,-0.284 0.279,-0.046 0.34,-0.566c5.401,0.011 10.273,0.237 15.602,0.226l0,1.809l0.792,0c-0.002,-0.774 0.004,-1.652 0.113,-2.261l0.226,0l0,-0.226c0.226,-0.068 0.097,0.016 0.226,-0.113l0.113,0l0,-0.339l-0.113,0c-0.038,0.113 -0.075,0.226 -0.113,0.339l-0.226,0l0,0.113c-0.113,0.038 -0.226,0.075 -0.339,0.113c-0.187,-0.305 -0.455,-0.289 -0.566,-0.678c-0.188,0.037 -0.377,0.075 -0.565,0.113c0.068,-0.226 -0.016,-0.098 0.113,-0.226c0.014,-0.016 -0.01,-0.215 0.113,-0.113l0,0.113c0.076,-0.038 0.151,-0.076 0.226,-0.113l0,0.113l0.113,0c0.038,-0.076 0.076,-0.151 0.113,-0.226c0.322,-0.13 0.478,0.089 0.566,0.226l0.113,0l0,-0.339l0.113,0l0,-0.114c-0.128,-0.096 -0.018,0.016 -0.113,-0.113c-0.618,0.042 -1.152,0.192 -1.583,0.34l0,-0.227c0.352,-0.073 0.504,-0.193 0.904,-0.226l0,-0.226l-4.183,0c0.191,-0.17 0.658,-0.112 1.018,-0.113l2.6,0c0.068,-0.226 -0.016,-0.097 0.113,-0.226l0,-0.113l-3.053,0c0.191,-0.17 0.658,-0.113 1.018,-0.113l2.601,0l0,-0.565l0.113,0c-0.038,-0.377 -0.076,-0.754 -0.113,-1.131l0.226,0l0,-0.226c0.266,-0.027 0.279,-0.048 0.452,-0.113c0.154,0.268 0.321,0.461 0.452,0.791c0.076,-0.038 0.151,-0.075 0.226,-0.113c-0.014,-0.786 -0.167,-0.48 -0.452,-0.904c-0.297,0.013 -0.384,0.044 -0.565,0.113l0,-0.226l0.226,0l0,-0.114c-0.233,-0.133 -0.435,-0.33 -0.565,-0.565l-0.227,0c0.019,-0.595 0.147,-0.815 0.34,-1.243l0.113,0c-0.038,-0.114 -0.076,-0.227 -0.113,-0.34l0.226,0c-0.135,-0.288 -0.028,-0.283 0,-0.678l-0.453,0c-0.011,-0.504 -0.146,-1.637 0.114,-1.922l0,-0.113l0.339,0c0.037,-0.603 0.075,-1.206 0.113,-1.809c-0.076,-0.038 -0.151,-0.076 -0.226,-0.113l0,-1.131l-0.113,0c-0.036,-0.228 0.113,-0.226 0.113,-0.226l0,-1.583c0.326,-0.082 0.374,-0.121 0.452,-0.452c-0.113,0.037 -0.226,0.075 -0.339,0.113l0,-0.113l-0.113,0l0,-0.113l0.339,0c0.016,-0.268 -0.015,-0.425 0.113,-0.566l0.226,0l0,-0.113c-0.164,-0.087 -0.113,-0.217 -0.113,-0.452c-1.244,-0.227 -2.978,-0.122 -4.41,-0.113c0.277,-0.247 2.563,-0.124 3.166,-0.113l0,-0.339c0.128,-0.097 0.018,0.015 0.113,-0.113c0.438,0.077 0.523,0.069 0.905,0.113l0,-0.113c-0.151,-0.038 -0.302,-0.076 -0.452,-0.113c0.013,-0.297 0.044,-0.384 0.113,-0.566c0.337,0.039 0.31,0.011 0.452,0.226l0.113,0l0,-0.678c0.151,-0.113 0.301,-0.226 0.452,-0.339c-0.037,-0.49 -0.075,-0.98 -0.113,-1.47l-0.113,0l0,-0.452l-0.113,0c-0.038,-0.113 -0.075,-0.226 -0.113,-0.339l0.113,0c0.095,-0.235 -0.065,-0.047 0.113,-0.226c-0.304,-0.366 -0.472,-0.171 -0.904,-0.34l0,-0.113l-0.227,0l0,-0.113c-0.075,0.038 -0.15,0.076 -0.226,0.113l0,-0.452l-0.113,0c0.038,-0.528 0.076,-1.055 0.113,-1.583c-0.225,0.068 -0.097,-0.016 -0.226,0.113c-0.324,0.315 -0.362,1.241 -0.339,1.922c-0.523,0.012 -1.737,0.158 -2.035,-0.113c-0.218,-0.236 0.006,-0.649 -0.113,-1.017l-0.113,0c-0.038,-0.264 -0.076,-0.528 -0.113,-0.792l-0.226,0c-0.038,-0.15 -0.076,-0.301 -0.114,-0.452l-3.278,0c-0.017,-0.39 -0.061,-2.038 0.113,-2.148l0.565,0c-0.075,-0.113 -0.151,-0.226 -0.226,-0.339l0.226,0l0,-0.227c0.302,0.038 0.603,0.076 0.905,0.113l0,-0.113l0.113,0c-0.038,0.189 -0.076,0.377 -0.113,0.566l0.339,0c-0.027,-0.267 -0.048,-0.28 -0.113,-0.453l0.113,-0.113c0.113,0.038 0.226,0.076 0.339,0.113l0,-0.113l0.339,0l0.113,0.113l0,-0.113c0.226,0.068 0.097,-0.015 0.226,0.113l0.113,0c0.097,0.198 -0.064,0.284 -0.113,0.34l0,0.113l0.339,0l0.114,-0.453l0.226,0c0.075,-0.414 0.15,-0.829 0.226,-1.243l-0.452,0l0,-0.113l0.678,0l0,-0.113l-0.565,0l0,-0.226l-1.47,0l0,0.113l-1.018,0l0,-0.113c-0.188,0.037 -0.377,0.075 -0.565,0.113l0,0.339c-0.226,-0.068 -0.097,0.016 -0.226,-0.113l-0.113,0l0,-0.113l0.113,0c-0.038,-0.113 -0.076,-0.226 -0.113,-0.339l0.113,0l0,-0.114c-0.088,-0.133 -0.12,0.047 -0.113,-0.113c0.075,-0.037 0.15,-0.075 0.226,-0.113l0,-1.809c-0.539,0.011 -2.267,0.087 -2.374,0l-0.34,0l0,0.113l0.34,0c0.17,1.127 0,3.347 0,4.862l0,1.696c0.337,1.204 0.112,3.727 0.113,5.201c0.075,2.826 0.15,5.653 0.226,8.48l0,4.974c0,0.535 0.21,1.566 0,1.809l0,1.696c-0.209,-0.108 -0.365,-0.332 -0.792,-0.226l0,0.113c-0.717,0.185 -2.624,-0.276 -3.052,0.113l-0.114,0l0,-1.583s-0.094,-0.011 -0.113,-0.226c-0.098,-1.134 0.154,-2.555 -0.113,-3.505c-0.113,-7.499 -0.226,-15 -0.339,-22.499l-0.339,0l0,24.987c0,0.5 0.138,1.519 -0.113,1.809l0,1.017c-0.806,-0.299 -3.115,-0.159 -3.957,0l0,-16.62c0,-3.665 0.049,-7.6 -0.113,-11.08l-0.226,0c-0.114,7.386 -0.227,14.774 -0.34,22.16c-0.184,0.657 -0.113,1.76 -0.113,2.601c-0.037,0.98 -0.075,1.96 -0.113,2.939c-0.608,-0.112 -1.486,-0.112 -2.261,-0.113l-1.018,0l0,-0.113l-0.565,0l0,0.226l-0.113,0c-0.038,-1.319 -0.075,-2.638 -0.113,-3.957l0.113,0l0,-5.766c0.075,-3.203 0.151,-6.407 0.226,-9.61c0,-1.494 -0.001,-3.209 0.113,-4.523l0,-1.583c-0.113,-0.037 -0.226,-0.075 -0.339,-0.113l-0.339,-1.017c-0.339,-0.038 -0.679,-0.076 -1.018,-0.113l0,-0.114c-0.188,0.038 -0.377,0.076 -0.565,0.114l0,0.113c-0.113,-0.038 -0.226,-0.076 -0.339,-0.113c0.068,-0.226 -0.016,-0.098 0.113,-0.227l0,-0.113l-0.452,0l0,0.226c-0.034,-0.303 -1.072,-0.219 -1.47,-0.226c-0.008,0.28 0.033,0.543 -0.113,0.679c-0.113,0.037 -0.226,0.075 -0.34,0.113l0,0.226c-0.075,0.038 -0.15,0.075 -0.226,0.113l0,0.678l-0.113,0s-0.044,0.449 -0.113,0.226l0,-0.226c-0.075,0.038 -0.15,0.076 -0.226,0.113l0,-0.113c-0.146,-0.093 -0.135,-0.077 -0.226,-0.226l-0.113,0l0,-0.113l0.113,0l0,-1.47l-0.113,0c-0.11,0.27 -0.099,0.405 -0.339,0.566c-0.138,0.142 -0.021,0.09 -0.226,0l0,-0.113l-0.34,0l0,-0.227c-0.262,-0.071 -0.265,-0.102 -0.452,-0.226l0,-0.113l-1.13,0l0,-0.113l-0.34,0c-0.037,-0.075 -0.075,-0.151 -0.113,-0.226l-2.261,0c-0.038,-0.113 -0.075,-0.226 -0.113,-0.339l-0.452,0l0,-0.226l-2.488,0l0,-0.113l-0.226,0l0,-0.113c-0.152,-0.051 -0.02,0.042 -0.113,0.113c-0.16,-0.004 0.041,-0.07 -0.113,-0.113l-0.565,0l0,0.113l0.339,0c-0.011,0.432 0.023,0.472 -0.339,0.565l0,2.261l0.565,0l0,-0.113l5.653,0c0.038,0.113 0.076,0.226 0.113,0.339l-14.133,0l0,-0.339l5.654,0l0,0.113l0.678,0c-0.01,-0.515 -0.111,-2.126 0.113,-2.374l0,-0.113l0.339,0l0,-0.452l-0.452,0c-0.038,0.113 -0.075,0.226 -0.113,0.339c-0.075,0.038 -0.151,0.075 -0.226,0.113l0,0.226l-0.113,0l0,0.226c-0.076,0.038 -0.151,0.075 -0.226,0.113c-0.232,0.364 -0.027,0.407 -0.453,0.679l0,0.226l-0.226,0c-0.037,-0.566 -0.075,-1.131 -0.113,-1.696l-6.105,0l0,0.113l0.565,0c-0.113,0.151 -0.226,0.301 -0.339,0.452l-3.844,0c-0.068,-0.226 0.015,-0.097 -0.113,-0.226l0,-0.113l-0.679,0c-0.037,-0.075 -0.075,-0.151 -0.113,-0.226l-1.696,0l0,-0.226l-0.565,0l0,0.226l-0.792,0c-0.068,-0.226 0.016,-0.098 -0.113,-0.226l0,-0.113l-0.339,0l0,0.226c-0.113,-0.038 -0.226,-0.076 -0.339,-0.113l0,-0.113l-0.113,0c0.038,-0.076 0.075,-0.151 0.113,-0.227c-0.008,-0.024 -0.204,-0.043 -0.226,-0.226c0.105,-0.121 0.083,0.044 0.113,-0.113c-0.203,0.108 -0.176,0.162 -0.452,0.226c0.058,0.558 0.25,0.522 0.678,0.679l0,0.452l-0.565,0l0,2.261l0.565,0l0,-0.113l5.653,0l0,0.339c-3.621,0.009 -6.715,0 -10.175,0l-2.714,0c-0.381,0 -0.923,0.067 -1.131,-0.113l-0.113,0l0,-0.113c0.491,-0.179 1.367,-0.113 2.036,-0.113l3.731,0l0,0.113l0.678,0l0,-2.487l0.565,0c0.038,-0.377 0.076,-0.754 0.113,-1.131l0.679,0c0.075,-0.113 0.15,-0.226 0.226,-0.339l0.113,0c-0.14,-0.503 -0.433,-0.403 -0.565,-0.904l-0.792,0l0,-0.792l-0.452,0c-0.086,-0.308 -0.027,-0.257 -0.339,-0.339l0,-2.374l-6.332,0l0,-0.34l5.766,0l0,0.113l0.792,0l0,-0.113l0.904,0l0,0.113c0.603,-0.037 1.206,-0.075 1.809,-0.113l4.749,0c0.038,0.113 0.075,0.227 0.113,0.34l-6.218,0l0,2.374l0.339,0l0,0.113l0.113,0l0,0.339l-0.339,0c0.15,0.189 0.301,0.377 0.452,0.565l0.113,0l0,-0.452l0.113,0c0.038,-0.113 0.075,-0.226 0.113,-0.339l0.792,0l0,0.226c0.291,-0.021 0.389,-0.015 0.565,-0.113l0,-0.113l0.904,0l0,0.226l0.679,0l0,-0.226l0.226,0l0,0.226l0.678,0c0.038,-0.075 0.076,-0.151 0.113,-0.226l0.792,0l0,0.226l0.678,0l0,-0.226l5.54,0c0.076,-0.415 0.151,-0.829 0.226,-1.244c0.113,0.038 0.227,0.076 0.34,0.113c0.037,0.076 0.075,0.151 0.113,0.226l-0.226,0c0.056,0.293 0.114,0.5 0.113,0.905l1.13,0c-0.093,-0.146 -0.077,-0.135 -0.226,-0.226l0,-0.113c0.113,0.038 0.226,0.075 0.339,0.113l0,0.113l0.226,0l0,0.113l1.47,0c0.068,0.226 -0.016,0.097 0.113,0.226c0.093,-0.146 0.078,-0.134 0.226,-0.226l0,-0.452c0.151,0.037 0.302,0.075 0.453,0.113l0,0.226l0.339,0c0.096,-0.127 -0.015,-0.018 0.113,-0.113c0.006,-0.786 0.108,-1.891 -0.113,-2.487c-1.355,0.048 -3.001,0.113 -4.523,0.113c-0.477,0 -1.424,0.127 -1.696,-0.113l-0.113,0l0,-0.114c0.463,-0.169 1.284,-0.113 1.922,-0.113c1.343,0 3.034,-0.132 4.184,0.113c0.247,0.053 0.338,-0.112 0.339,-0.113l1.357,0l0,0.113c0.247,0.053 0.338,-0.112 0.339,-0.113l5.992,0c0.038,0.113 0.075,0.227 0.113,0.34l-4.183,0c-0.458,0 -1.324,0.115 -1.583,-0.113c-0.297,0.013 -0.384,0.044 -0.565,0.113c0.001,0.965 0.041,2.026 0.113,2.826l0.113,0l0,0.113c0.473,-0.262 0.434,-0.356 1.243,-0.339l0,0.339l0.453,0c0.096,-0.127 -0.015,-0.017 0.113,-0.113l0,-0.226l4.522,0l0,-0.452l0.113,0c0.085,-0.319 0.203,-0.325 0.34,-0.565c0.431,0.002 0.708,0.057 1.017,0.112l0,-0.452l0.226,0c-0.068,-0.225 0.016,-0.097 -0.113,-0.226c0.097,-0.115 0.195,-0.159 0.339,-0.226l0,-0.226c0.127,0.128 0.049,-0.001 0.113,0.226l0.227,0l0,0.226c0.778,0.222 0.174,0.404 0.452,0.792l0.113,0l0,0.113l0.791,0l0,0.113c0.151,0.037 0.302,0.075 0.453,0.113c0.075,0.113 0.15,0.226 0.226,0.339l0.904,0c0.583,0.001 2.671,0.134 2.94,-0.113l0.113,0c-0.038,-0.113 -0.075,-0.226 -0.113,-0.339l0.226,0l0,-0.226l0.113,0l0,0.339l0.339,0l0,0.226c7.198,0.038 14.398,0.075 21.595,0.113l0,-3.618c-0.083,-0.14 -0.44,-0.11 -0.678,-0.113l0,-0.113l0.565,-0.113c0.109,-1.177 0.003,-2.437 0,-3.844c-0.226,-0.068 -0.097,0.015 -0.226,-0.113l-0.113,0c0.038,0.113 0.075,0.226 0.113,0.339c-0.113,0.038 -0.226,0.075 -0.339,0.113l0,0.113l-0.113,0l0,-0.113c-0.264,-0.103 -0.498,-0.112 -0.905,-0.113l-3.165,0c-0.419,0 -1.125,-0.092 -1.357,0.113l-0.452,0l0,-0.113l-0.113,0c0.088,-0.169 0.117,-0.409 0,-0.679l-0.114,0l0,-0.226l-0.113,0c-0.075,-0.226 -0.15,-0.452 -0.226,-0.678c-0.98,-0.038 -1.96,-0.075 -2.939,-0.113c-0.055,-0.552 -0.12,-1.224 -0.113,-1.922c0.603,-0.038 1.206,-0.076 1.809,-0.113l0,-0.226l1.017,0c0.038,0.112 0.075,0.226 0.113,0.339c0.227,-0.213 -0.009,-0.094 0.113,-0.339l0.113,0l0,-0.226c0.223,-0.419 0.548,-0.69 0.34,-1.244l0.226,0l0,-0.113c0.299,-0.094 0.266,0.197 0.339,0.226l0.791,0c1.088,0.004 2.494,0.103 3.392,-0.113c0.551,-0.133 1.003,0.536 1.244,-0.226c0.146,0.093 0.134,0.077 0.226,0.226c0,0 0.434,0.006 0.226,0.113l-0.113,0l0,0.452l0.113,-0.113c0.35,-0.065 0.213,0.277 0.565,0.226l0,-0.113c0.377,-0.037 0.754,-0.075 1.131,-0.113c-0.053,-0.246 -0.072,-0.32 -0.226,-0.452c0.02,-0.507 0.021,-0.5 0.226,-0.792l0.113,0l0,-0.339l0.113,0l0,-0.226l0.113,0c0.051,-0.152 -0.043,-0.023 -0.113,-0.113l0,-0.113l0.113,0c-0.038,-0.302 -0.075,-0.603 -0.113,-0.904c0.377,-0.076 0.754,-0.152 1.131,-0.226l0,0.112l0.678,0.114c0.113,0.602 0.226,1.205 0.339,1.808l0.34,0c-0.046,0.453 -0.194,0.689 -0.34,1.018c0.652,0.235 0.987,0.018 1.357,0.452l0.113,0l0,-0.678c0.226,-0.038 0.452,-0.075 0.678,-0.113c0,0 -0.005,-0.428 0.114,-0.226l0,0.226c1.357,0.234 3.203,0.113 4.748,0.113l1.809,0c0.151,-0.189 0.302,-0.377 0.452,-0.565l0.226,0l0,-0.114l0.227,0l0,-0.113l0.339,0l0,-0.113c0.496,-0.16 1.805,0.075 2.035,0.226c0.113,0.151 0.226,0.302 0.34,0.453c0.15,-0.038 0.301,-0.076 0.452,-0.113c-0.073,-0.268 -0.032,-0.212 -0.226,-0.34l0,-0.113c0.188,-0.037 0.376,-0.075 0.565,-0.113l0,0.453l-0.113,0c0.037,0.075 0.075,0.151 0.113,0.226c-0.063,0.086 -0.088,-0.085 -0.227,0.113c0.345,0.232 0.049,0.207 0.227,0.452l0.113,0l0,0.113c0.188,0.038 0.377,0.075 0.565,0.113l0,-0.339l0.34,0c0.037,-0.113 0.075,-0.226 0.112,-0.339l0.452,0c-0.085,-0.336 -0.183,-0.278 -0.226,-0.679l-0.226,0l0,0.679l-0.112,0l0,-0.679l-0.227,0l0,-0.226c0.113,-0.037 0.227,-0.075 0.339,-0.113l0,0.113l0.226,0c-0.001,-0.61 0.032,-1.24 0.114,-1.696l0.904,0l0,2.375c0.113,-0.038 0.226,-0.076 0.339,-0.113l0,0.339l0.113,0l0,-0.339c0.496,-0.018 0.686,-0.066 0.792,0.339l0.452,0l0,-0.113l0.113,0l0,-0.226l0.678,0l0,0.339l0.566,0c-0.125,-0.671 -0.122,-1.647 -0.113,-2.487l0.904,0c0.048,0.473 0.119,0.976 0.114,1.582c0.112,-0.037 0.226,-0.075 0.338,-0.113l0,0.113l0.226,0l0,0.226l-0.226,0l0,0.679l-0.112,0l0,-0.679l-0.226,0c-0.045,0.366 -0.103,0.331 -0.227,0.566c0.173,0.066 0.184,0.09 0.453,0.113l0,0.339l0.112,0l0,0.113c0.26,-0.034 0.289,-0.021 0.452,-0.113l0,-0.113l2.149,0c0.004,0.43 -0.01,0.855 -0.113,1.13l-2.148,0l0,-0.226l-0.34,0l0,0.114l-0.112,0l0,1.469l0.338,0l0,0.792l-0.226,0l0,0.791l0.226,0l0,0.226c-0.112,0.038 -0.226,0.076 -0.338,0.113l0,-0.113l-0.226,0l0,-0.226l0.226,0l0,-0.565l-0.34,0c-0.038,0.188 -0.075,0.377 -0.113,0.565c-0.323,-0.005 -0.484,-0.039 -0.678,-0.113l0,-0.452c-0.621,0.02 -0.514,0.114 -0.678,0.565c-0.488,-0.026 -0.383,-0.07 -0.679,-0.226l0,-0.339l-0.452,0c-0.038,0.188 -0.075,0.377 -0.113,0.565c-0.324,-0.005 -0.484,-0.039 -0.679,-0.113l0,-0.452l-0.452,0c-0.044,0.365 -0.103,0.33 -0.226,0.565c-0.297,-0.013 -0.384,-0.044 -0.566,-0.113l0,-0.452l-0.338,0l0,0.113l-0.114,0l0,0.452l0.34,0l0,0.113c-0.151,0.076 -0.302,0.151 -0.452,0.226c-0.076,-0.113 -0.152,-0.226 -0.227,-0.339l0.227,0l0,-0.791c-0.189,0.037 -0.378,0.075 -0.566,0.113l0,0.226l-0.452,0c0.001,0.846 -0.016,1.423 0,2.035c-0.189,-0.038 -0.377,-0.075 -0.565,-0.113c-0.076,-0.113 -0.152,-0.226 -0.226,-0.339l-10.063,0c-0.079,0.03 -0.051,0.261 -0.227,0.226l0,-0.113c-0.226,-0.038 -0.452,-0.075 -0.678,-0.113c-0.038,1.055 -0.075,2.11 -0.113,3.166l0.113,0l0,0.339c0.007,0.011 0.172,0.125 0.226,0.226l-0.226,0l0,0.565c0.226,0.038 0.452,0.076 0.678,0.113l0,-0.113l0.114,0l0,0.113c0.113,0.038 0.226,0.076 0.339,0.113l-0.113,-0.113c-0.054,-0.332 0.278,-0.332 0.339,-0.452l0,-0.226l0.792,0c0.037,0.075 0.075,0.151 0.112,0.226c0.347,0.307 0.399,0.503 0.905,0.339c0.01,0.549 0.023,1.428 -0.227,1.696c-0.183,0.16 -0.658,-0.058 -1.13,0.113l0,0.113l-0.226,0l0,0.113l-0.113,0l0,-0.113c-0.16,0.001 0.041,0.069 -0.113,0.113c-0.452,-0.037 -0.905,-0.075 -1.357,-0.113l0,1.357l12.777,0l0,-0.113c0.226,-0.075 0.452,-0.151 0.678,-0.226l0,0.113l1.469,0s0.155,-0.189 0.227,-0.226l0,-0.566c-0.522,-0.141 -0.729,-0.509 -1.357,-0.565c-0.038,-0.113 -0.075,-0.226 -0.113,-0.339l0.113,0l0,-0.226c0.226,0.068 0.097,-0.016 0.226,0.113l0.565,0c-0.188,-0.339 -0.377,-0.679 -0.565,-1.018c-0.565,0.113 -1.131,0.226 -1.696,0.339l0,0.114c-0.264,0.037 -0.528,0.075 -0.792,0.113c-0.037,0.075 -0.075,0.15 -0.112,0.226l-0.679,0l0,0.113c-0.226,0.038 -0.452,0.075 -0.678,0.113c-0.038,0.113 -0.075,0.226 -0.113,0.339l0.113,0c0.037,0.113 0.075,0.226 0.113,0.339l-0.452,0l0,-0.113l-0.113,0c0.037,-0.113 0.075,-0.226 0.113,-0.339c-0.603,0.264 -1.207,0.528 -1.809,0.791l0,0.226c-0.383,0.088 -0.52,0.262 -0.905,0.34c-0.162,-0.384 -0.327,-0.717 -0.339,-1.244c0.226,-0.038 0.452,-0.075 0.678,-0.113l0,-0.113c0.167,-0.037 0.226,0.113 0.226,0.113c0.34,-0.075 0.679,-0.151 1.018,-0.226l0,-0.113l0.226,0l0.113,-0.226c0.264,-0.038 0.528,-0.076 0.792,-0.113l0,-0.113l0.113,0c-0.038,-0.114 -0.076,-0.227 -0.113,-0.34c0.172,-0.066 0.184,-0.09 0.452,-0.113c-0.068,0.226 0.015,0.098 -0.113,0.226l0,0.113c1.036,-0.197 1.601,-0.604 2.374,-1.017c0.226,-0.075 0.452,-0.151 0.678,-0.226c0.076,-0.113 0.152,-0.226 0.226,-0.339c0.195,-0.132 0.255,-0.003 0.453,-0.227l0.339,0l0,0.114l0.113,0c0.038,0.226 0.075,0.452 0.113,0.678c0.151,-0.038 0.302,-0.076 0.452,-0.113c-0.04,-0.446 -0.111,-0.331 0,-0.679l-0.226,0l0,-0.452l-0.113,0c-0.002,-0.406 0.014,-0.642 0.113,-0.904l0.905,0l0,1.356c0.09,0.303 0.218,0.547 0.226,1.018c-0.264,0.075 -0.528,0.151 -0.792,0.226c0.151,0.264 0.302,0.528 0.453,0.792l0.113,0l0,-0.34c0.307,-0.086 0.257,-0.027 0.339,-0.339c0.126,0.129 0.048,-0.001 0.113,0.226l0.566,0l0,-0.339l-0.114,0l0,-0.113l0.34,0l-0.114,0.339c0.21,0.08 0.443,0.117 0.792,0.113c0.193,-0.585 0.207,0.37 0.339,0.566c0.23,-0.22 0.521,-0.052 0.792,0l0,0.339l0.226,0l0,-0.226c-0.076,-0.038 -0.151,-0.076 -0.226,-0.113c0.037,-0.113 0.075,-0.226 0.112,-0.34c0.264,-0.037 0.528,-0.075 0.792,-0.113l0,-0.226l0.339,0l0,-0.113c0.113,0.038 0.226,0.076 0.339,0.113l0,-0.113c0.113,0.038 0.227,0.076 0.34,0.113l0,0.679c-0.264,0.037 -0.528,0.075 -0.792,0.113l0,-0.113l-0.565,0c-0.068,0.225 0.016,0.097 -0.113,0.226l0,0.113c0.113,-0.038 0.226,-0.075 0.339,-0.113c0.037,0.113 0.075,0.226 0.113,0.339l-0.113,0l0,0.226c-0.075,-0.038 -0.151,-0.075 -0.226,-0.113c-0.038,0.075 -0.075,0.151 -0.113,0.226l-0.34,0c-0.037,0.076 -0.075,0.151 -0.112,0.226l-0.226,0l0,0.113c-0.114,0.038 -0.227,0.076 -0.34,0.113l0,0.566l0.226,0l0.114,0.226c0.15,-0.038 0.301,-0.076 0.452,-0.113l0,0.113c0.376,-0.038 0.753,-0.076 1.13,-0.113l0,0.113l0.339,0l0,0.113l0.227,0l0,0.113l5.087,0c0.082,-0.326 0.122,-0.375 0.453,-0.452c0,0 -0.006,-0.428 0.113,-0.226l0,0.226c0.226,0.037 0.452,0.075 0.678,0.113l0,-0.113c0.226,-0.068 0.097,0.015 0.226,-0.113l0.113,0l0,-0.339l0.113,0l0,-0.114l-0.113,0l0,-0.113s0.086,-0.007 0.113,-0.226c0.308,-0.086 0.258,-0.027 0.34,-0.339l0.226,0l0,-0.226l0.113,0c0.037,0.113 0.075,0.226 0.113,0.339l0.226,0c-0.207,0.193 -0.029,0.302 0,0.565c0.488,0 0.894,0.05 1.243,0.114c0.065,0.254 0.438,0.675 0.226,1.13l-0.112,0c-0.153,0.222 -0.251,0.259 -0.34,0.565l-0.226,0c0.038,0.302 0.076,0.604 0.114,0.905c0.112,-0.038 0.226,-0.075 0.338,-0.113c-0.149,0.31 -0.293,0.21 0,0.452l0,0.113c-0.15,-0.037 -0.301,-0.075 -0.452,-0.113l0,0.339c0.128,0.097 0.018,-0.015 0.114,0.113l0.452,0s0.016,-0.439 0.112,-0.226l0,0.113l0.114,0c0.017,-0.495 0.069,-0.933 -0.226,-1.13l0,-0.113c0.112,0.037 0.226,0.075 0.339,0.113c0.075,-0.113 0.151,-0.226 0.226,-0.34l0.113,0l0,0.114l4.184,0c0.668,0 1.544,0.066 2.035,-0.114l0,-2.487c-1.341,0.078 -3.011,0.113 -4.523,0.113c-0.458,0 -1.325,0.116 -1.583,-0.113c-0.127,-0.097 -0.018,0.015 -0.113,-0.113c0.462,-0.17 1.284,-0.113 1.922,-0.113l4.297,0l0,0.113l0.113,0l0,-0.113l0.791,0c1.984,0.004 4.678,-0.011 7.01,0l0,0.339l-5.766,0l0,-0.113l-0.566,0c-0.001,0.809 -0.002,1.734 0.114,2.374l0.565,0l0,-0.226l0.339,0c0.07,0.353 0.104,0.476 0.452,0.566l0,-0.227c1.674,0.304 4.716,0.211 6.219,-0.113l0,-0.226c1.375,-0.069 3.087,-0.119 4.635,-0.113c0.118,0.148 0.232,0.168 0.339,0.339l0.114,0l0,0.113l-0.226,0l0,0.114l1.921,0l0,0.113c0.175,0.097 0.274,0.095 0.566,0.113l0,-0.226c0.733,-0.012 0.859,-0.198 1.47,-0.227l0,-2.374l-0.566,0l0,0.113l-5.653,0l0,-0.339l14.133,0c-0.038,0.113 -0.075,0.226 -0.113,0.339l-5.654,0l0,-0.113l-0.678,0l0,2.487l-0.678,0c-0.038,0.377 -0.075,0.754 -0.113,1.131l-0.792,0c0.124,-0.233 0.189,-0.199 0.227,-0.565c-0.421,0.113 -0.306,0.235 -0.565,0.452l0,0.226c0.112,-0.037 0.226,-0.075 0.338,-0.113c-0.064,0.265 -0.161,0.422 -0.338,0.565l0,0.113l0.226,-0.113l0,0.113c0.215,0.001 0.064,-0.077 0.112,-0.226c0.233,0.133 0.435,0.331 0.566,0.566l0.565,0l0,0.678l0.452,0l0,0.339c0.114,0.038 0.226,0.076 0.34,0.113c-0.006,0.786 -0.109,1.891 0.112,2.488c1.835,-0.333 4.297,-0.123 6.332,-0.113l0,0.226l-5.879,0c-0.531,0.001 -1.692,0.302 -2.035,0m-114.65,-49.861c-0.678,0.038 -1.357,0.076 -2.035,0.113l0,-0.113l-0.679,0l0,39.459l-5.653,0l0,-34.258c0,-1.868 0.04,-3.967 -0.113,-5.653l4.862,0c0.414,0.037 0.829,0.075 1.244,0.113l0,0.113c0.15,-0.038 0.301,-0.075 0.452,-0.113l0,-0.226l1.244,0c0.037,0.113 0.075,0.226 0.113,0.339l0.113,0l0,-0.113l0.339,0l0,-0.113l5.766,0l0,39.911l-5.653,0l0,-39.459z"/>
   </g>
  </g>
 </g>
</svg>